# File created by Blade
# Date/Time:  Wed Jan 21 16:09:38 2015
# Frame Rate: 120.000 fps
#------------------------------------------------------
:FULLY-SPECIFIED
:DEGREES
620
root 12.769806 33.378099 -22.678687 -179.179904 76.577765 -223.914096
Spine 50.834184 -11.312110 3.275140
Head -37.927402 -1.528428 4.346981
LeftShoulder -9.422367 -33.281946 22.113847
LeftArm -39.970616 -7.873942 -19.607018
LeftForeArm -40.010731 -0.000000 -4.251138
LeftHand -10.569784 -0.000000 1.889733
LeftHandThumb1 -26.253704 0.000000 33.147579
RightShoulder -11.514084 -3.290236 -12.581765
RightArm -37.156094 48.122214 16.894722
RightForeArm 10.583337 0.000000 11.205196
RightHand -22.319934 -0.000000 -19.243368
RightHandThumb1 -24.326973 -0.000000 -32.862282
LeftUpLeg -19.879404 -6.693977 -15.180501
LeftLeg -17.103574 -0.000000 0.000000
LeftFoot -5.922297 26.237519 15.530524
LeftToeBase -141.685655 -0.000000 0.000000
RightUpLeg -64.784390 -4.883983 -9.335770
RightLeg -5.375590 -0.000000 0.000000
RightFoot 11.572990 -30.728320 -0.312365
RightToeBase 26.367967 -0.000000 -0.000000
621
root 12.833955 33.397468 -22.685407 -178.718125 76.716023 -222.893614
Spine 50.178740 -11.153543 3.287812
Head -38.098432 -1.387982 4.217620
LeftShoulder -9.524776 -33.173998 22.094841
LeftArm -40.170419 -8.020171 -19.606050
LeftForeArm -40.081380 -0.000000 -4.111550
LeftHand -10.626298 -0.000000 2.002590
LeftHandThumb1 -26.253704 0.000000 33.147579
RightShoulder -11.583339 -3.164966 -12.653550
RightArm -36.907076 47.975631 16.894577
RightForeArm 10.338420 0.000000 11.246109
RightHand -22.311775 -0.000000 -19.580811
RightHandThumb1 -24.326973 -0.000000 -32.862282
LeftUpLeg -19.350430 -6.421355 -14.968983
LeftLeg -16.999223 -0.000000 0.000000
LeftFoot -5.965866 26.174611 15.478962
LeftToeBase -141.715206 -0.000000 0.000000
RightUpLeg -64.166968 -4.642708 -9.115267
RightLeg -5.360773 -0.000000 0.000000
RightFoot 11.542068 -30.670770 -0.396785
RightToeBase 26.486320 -0.000000 -0.000000
622
root 12.897803 33.418709 -22.691743 -178.076722 76.841152 -221.766443
Spine 49.426062 -11.061978 3.291545
Head -38.252551 -1.168053 4.094190
LeftShoulder -9.870970 -33.298120 22.204591
LeftArm -40.360779 -8.054768 -19.540424
LeftForeArm -39.801379 -0.000000 -3.958190
LeftHand -10.590172 0.000000 1.993838
LeftHandThumb1 -26.253704 0.000000 33.147579
RightShoulder -11.614242 -3.131507 -12.722500
RightArm -36.526310 47.889213 16.960695
RightForeArm 10.372473 -0.000000 11.234663
RightHand -22.255416 -0.000000 -19.876008
RightHandThumb1 -24.326973 -0.000000 -32.862282
LeftUpLeg -18.891577 -6.189967 -14.720786
LeftLeg -16.901062 -0.000000 0.000000
LeftFoot -5.969448 26.157146 15.413787
LeftToeBase -141.791941 -0.000000 0.000000
RightUpLeg -63.625391 -4.388677 -8.938457
RightLeg -5.304838 -0.000000 0.000000
RightFoot 11.493572 -30.648247 -0.469951
RightToeBase 26.186952 -0.000000 -0.000000
623
root 12.968163 33.440268 -22.692158 -177.436146 76.995746 -220.633799
Spine 48.639175 -10.855894 3.262843
Head -38.245078 -1.060279 4.175366
LeftShoulder -10.147287 -33.378828 22.400453
LeftArm -40.576611 -8.130823 -19.559255
LeftForeArm -39.514287 0.000000 -3.851982
LeftHand -10.296660 -0.000000 1.846747
LeftHandThumb1 -26.253704 0.000000 33.147579
RightShoulder -11.566870 -3.162802 -12.616964
RightArm -36.216185 47.808641 16.870300
RightForeArm 10.320515 -0.000000 11.178765
RightHand -22.367963 -0.000000 -19.816379
RightHandThumb1 -24.326973 -0.000000 -32.862282
LeftUpLeg -18.428568 -5.890985 -14.471811
LeftLeg -16.786954 -0.000000 0.000000
LeftFoot -5.991774 26.078406 15.367048
LeftToeBase -141.803682 -0.000000 0.000000
RightUpLeg -63.090653 -4.145878 -8.634585
RightLeg -5.274360 -0.000000 0.000000
RightFoot 11.407395 -30.637164 -0.481417
RightToeBase 26.240159 -0.000000 -0.000000
624
root 13.046396 33.461821 -22.694443 -176.792059 77.148898 -219.407814
Spine 47.981574 -10.709927 3.259018
Head -38.335219 -0.965757 4.114497
LeftShoulder -10.378847 -33.186038 22.485000
LeftArm -40.692530 -8.363517 -19.707614
LeftForeArm -39.395745 -0.000000 -3.758206
LeftHand -10.169096 0.000000 2.008701
LeftHandThumb1 -26.253704 0.000000 33.147579
RightShoulder -11.594739 -3.141417 -12.643624
RightArm -35.906728 47.858090 16.792891
RightForeArm 10.078856 0.000000 11.186266
RightHand -22.469269 -0.000000 -19.748817
RightHandThumb1 -24.326973 -0.000000 -32.862282
LeftUpLeg -17.852075 -5.578724 -14.206257
LeftLeg -16.696212 -0.000000 0.000000
LeftFoot -6.012407 25.955832 15.301619
LeftToeBase -141.859760 -0.000000 0.000000
RightUpLeg -62.441827 -3.855703 -8.388427
RightLeg -5.242964 -0.000000 0.000000
RightFoot 11.400419 -30.656039 -0.655259
RightToeBase 26.293530 -0.000000 -0.000000
625
root 13.143359 33.487398 -22.699010 -175.873383 77.220984 -217.706514
Spine 47.549371 -10.686887 3.398084
Head -38.426441 -0.949424 3.927333
LeftShoulder -10.412490 -33.250262 22.370957
LeftArm -40.997707 -8.408112 -19.676393
LeftForeArm -39.203598 -0.000000 -3.697191
LeftHand -10.393145 -0.000000 2.372867
LeftHandThumb1 -26.253704 0.000000 33.147579
RightShoulder -11.567406 -3.035599 -12.839623
RightArm -35.688122 47.819073 16.782815
RightForeArm 9.737049 -0.000000 11.217863
RightHand -22.414140 -0.000000 -19.985571
RightHandThumb1 -24.326973 -0.000000 -32.862282
LeftUpLeg -17.079553 -5.293243 -13.844035
LeftLeg -16.559460 -0.000000 0.000000
LeftFoot -6.082012 25.853104 15.173582
LeftToeBase -141.964746 -0.000000 0.000000
RightUpLeg -61.509637 -3.672132 -7.940815
RightLeg -5.309906 -0.000000 0.000000
RightFoot 11.315855 -30.521731 -0.725737
RightToeBase 26.456802 -0.000000 -0.000000
626
root 13.247645 33.509399 -22.698735 -174.908230 77.322185 -215.911722
Spine 47.154149 -10.623710 3.523251
Head -38.452321 -0.813047 3.726071
LeftShoulder -10.500975 -33.136536 22.279722
LeftArm -41.126545 -8.614967 -19.703868
LeftForeArm -39.241397 -0.000000 -3.812233
LeftHand -10.127147 -0.000000 2.104279
LeftHandThumb1 -26.253704 0.000000 33.147579
RightShoulder -11.495394 -3.097088 -12.990130
RightArm -35.399422 47.851570 16.866099
RightForeArm 9.344016 -0.000000 11.301606
RightHand -22.505154 -0.000000 -19.907930
RightHandThumb1 -24.326973 -0.000000 -32.862282
LeftUpLeg -16.224414 -4.901693 -13.478457
LeftLeg -16.477506 -0.000000 0.000000
LeftFoot -6.161469 25.636350 15.090504
LeftToeBase -142.005942 -0.000000 0.000000
RightUpLeg -60.527358 -3.428421 -7.473495
RightLeg -5.372473 -0.000000 0.000000
RightFoot 11.179938 -30.411750 -0.799235
RightToeBase 26.087021 -0.000000 -0.000000
627
root 13.340586 33.532240 -22.698475 -174.046990 77.404106 -214.359269
Spine 46.584896 -10.569236 3.592222
Head -38.448877 -0.708303 3.581661
LeftShoulder -10.644384 -33.456163 22.306413
LeftArm -41.472336 -8.288427 -19.761442
LeftForeArm -39.172543 -0.000000 -3.728267
LeftHand -10.325806 -0.000000 2.434273
LeftHandThumb1 -26.253704 0.000000 33.147579
RightShoulder -11.470554 -3.193107 -13.141485
RightArm -34.957759 47.882653 17.047998
RightForeArm 8.696491 0.000000 11.323201
RightHand -22.516732 0.000000 -19.771652
RightHandThumb1 -24.326973 -0.000000 -32.862282
LeftUpLeg -15.545034 -4.583964 -13.147393
LeftLeg -16.326138 -0.000000 0.000000
LeftFoot -6.211372 25.488717 15.066800
LeftToeBase -142.067900 -0.000000 0.000000
RightUpLeg -59.714309 -3.206349 -7.128530
RightLeg -5.377785 -0.000000 0.000000
RightFoot 11.044033 -30.384704 -0.838240
RightToeBase 25.881603 -0.000000 -0.000000
628
root 13.435249 33.555803 -22.693221 -173.080987 77.456725 -212.731524
Spine 45.951450 -10.479635 3.696752
Head -38.363107 -0.600462 3.453326
LeftShoulder -10.697803 -33.252248 22.292119
LeftArm -41.658077 -8.591031 -19.847514
LeftForeArm -39.028332 -0.000000 -3.671546
LeftHand -10.404965 -0.000000 2.697765
LeftHandThumb1 -26.253704 0.000000 33.147579
RightShoulder -11.485655 -3.213616 -13.278280
RightArm -34.527678 47.805925 17.213961
RightForeArm 7.845354 -0.000000 11.358174
RightHand -22.478023 -0.000000 -19.611704
RightHandThumb1 -24.326973 -0.000000 -32.862282
LeftUpLeg -14.879820 -4.298598 -12.783568
LeftLeg -16.203071 -0.000000 0.000000
LeftFoot -6.272829 25.329538 14.984328
LeftToeBase -142.169707 -0.000000 0.000000
RightUpLeg -58.937645 -3.041243 -6.694207
RightLeg -5.358698 -0.000000 0.000000
RightFoot 10.871568 -30.275590 -0.897172
RightToeBase 25.668019 -0.000000 -0.000000
629
root 13.532344 33.580844 -22.686684 -172.075458 77.484727 -211.091943
Spine 45.295689 -10.437806 3.791786
Head -38.288368 -0.580683 3.392681
LeftShoulder -10.848499 -33.257341 22.317712
LeftArm -41.894261 -8.672038 -19.887988
LeftForeArm -39.090695 -0.000000 -3.623737
LeftHand -10.235066 0.000000 2.656683
LeftHandThumb1 -26.253704 0.000000 33.147579
RightShoulder -11.513575 -3.283131 -13.397870
RightArm -34.058516 47.856581 17.382931
RightForeArm 6.819770 -0.000000 11.485288
RightHand -22.571669 -0.000000 -19.538919
RightHandThumb1 -24.326973 -0.000000 -32.862282
LeftUpLeg -14.253338 -3.934635 -12.451315
LeftLeg -16.047239 -0.000000 0.000000
LeftFoot -6.371428 25.058929 14.897619
LeftToeBase -142.276145 -0.000000 0.000000
RightUpLeg -58.153661 -2.876905 -6.295651
RightLeg -5.387475 -0.000000 0.000000
RightFoot 10.725800 -30.199233 -0.975489
RightToeBase 25.468802 -0.000000 -0.000000
630
root 13.628545 33.604646 -22.675679 -171.197618 77.490294 -209.587325
Spine 44.611654 -10.393163 3.887856
Head -38.124280 -0.531230 3.211740
LeftShoulder -10.849340 -33.105677 22.222387
LeftArm -42.156971 -8.954561 -19.795213
LeftForeArm -38.875803 -0.000000 -3.398643
LeftHand -10.494223 -0.000000 2.814055
LeftHandThumb1 -26.253704 0.000000 33.147579
RightShoulder -11.524426 -3.166180 -13.651764
RightArm -33.737690 47.638176 17.594894
RightForeArm 5.921759 -0.000000 11.651849
RightHand -22.552466 -0.000000 -19.593385
RightHandThumb1 -24.326973 -0.000000 -32.862282
LeftUpLeg -13.639149 -3.637288 -12.111547
LeftLeg -15.865270 -0.000000 0.000000
LeftFoot -6.438776 24.814756 14.835190
LeftToeBase -142.264307 -0.000000 0.000000
RightUpLeg -57.389864 -2.675642 -6.016626
RightLeg -5.378252 -0.000000 0.000000
RightFoot 10.564038 -30.234219 -1.083979
RightToeBase 25.342079 -0.000000 -0.000000
631
root 13.735266 33.630984 -22.662042 -170.312158 77.522982 -208.009020
Spine 44.000576 -10.282735 3.946162
Head -37.930376 -0.418888 3.128164
LeftShoulder -10.934925 -33.097092 22.243085
LeftArm -42.394152 -9.064587 -19.808018
LeftForeArm -38.804633 -0.000000 -3.304606
LeftHand -10.109384 -0.000000 2.549981
LeftHandThumb1 -26.253704 0.000000 33.147579
RightShoulder -11.456969 -3.075506 -13.807030
RightArm -33.435193 47.389900 17.750525
RightForeArm 5.025356 -0.000000 11.784973
RightHand -22.511308 -0.000000 -19.818459
RightHandThumb1 -24.326973 -0.000000 -32.862282
LeftUpLeg -12.934679 -3.251425 -11.772187
LeftLeg -15.717203 -0.000000 0.000000
LeftFoot -6.491850 24.548833 14.748160
LeftToeBase -142.371564 -0.000000 0.000000
RightUpLeg -56.551471 -2.451993 -5.680063
RightLeg -5.380137 -0.000000 0.000000
RightFoot 10.408526 -30.246665 -1.181514
RightToeBase 25.254552 -0.000000 -0.000000
632
root 13.834604 33.658205 -22.655866 -169.518838 77.485310 -206.661696
Spine 43.202375 -10.265518 4.023316
Head -37.679413 -0.404939 2.965506
LeftShoulder -10.984471 -33.034730 22.150547
LeftArm -42.603154 -9.154666 -19.746690
LeftForeArm -38.357128 -0.000000 -3.152510
LeftHand -10.456678 -0.000000 3.112161
LeftHandThumb1 -26.253704 0.000000 33.147579
RightShoulder -11.392053 -3.135055 -13.970460
RightArm -33.020233 47.179959 17.968367
RightForeArm 4.406425 -0.000000 11.832208
RightHand -22.445532 0.000000 -19.860531
RightHandThumb1 -24.326973 -0.000000 -32.862282
LeftUpLeg -12.367260 -2.937075 -11.488606
LeftLeg -15.557498 -0.000000 0.000000
LeftFoot -6.525685 24.251341 14.573131
LeftToeBase -142.570452 -0.000000 0.000000
RightUpLeg -55.858269 -2.348278 -5.355759
RightLeg -5.364970 -0.000000 0.000000
RightFoot 10.268890 -30.233078 -1.301360
RightToeBase 25.007830 -0.000000 -0.000000
